<?xml version="1.0" encoding="UTF-8" standalone="no"?>
<!-- Created with Inkscape (http://www.inkscape.org/) -->

<svg
   version="1.1"
   id="svg1"
   width="111.99999"
   height="112.30716"
   viewBox="0 0 111.99999 112.30716"
   sodipodi:docname="icons8-gear-100.png"
   inkscape:export-filename="icons8-gear-100.svg"
   inkscape:export-xdpi="96"
   inkscape:export-ydpi="96"
   xmlns:inkscape="http://www.inkscape.org/namespaces/inkscape"
   xmlns:sodipodi="http://sodipodi.sourceforge.net/DTD/sodipodi-0.dtd"
   xmlns="http://www.w3.org/2000/svg"
   xmlns:svg="http://www.w3.org/2000/svg">
  <defs
     id="defs1" />
  <sodipodi:namedview
     id="namedview1"
     pagecolor="#505050"
     bordercolor="#ffffff"
     borderopacity="1"
     inkscape:showpageshadow="0"
     inkscape:pageopacity="0"
     inkscape:pagecheckerboard="1"
     inkscape:deskcolor="#505050">
    <inkscape:page
       x="0"
       y="0"
       width="111.99999"
       height="112.30716"
       id="page2"
       margin="0"
       bleed="0" />
  </sodipodi:namedview>
  <g
     inkscape:groupmode="layer"
     inkscape:label="Image"
     id="g1"
     transform="translate(-10.666667,-10.513087)">
    <path
       style="fill:#cccccc"
       d="m 61.6,120.91308 c -0.88,-0.88 -1.6,-3.20653 -1.6,-5.17007 0,-7.64571 -7.597757,-9.1868 -13.065302,-2.65011 -4.178355,4.99541 -13.774975,1.9069 -11.592665,-3.7309 3.745318,-9.67569 0.13985,-15.034594 -8.356109,-12.419904 -8.651301,2.662504 -13.149029,-6.42441 -5.777837,-11.67316 5.793511,-4.12535 3.309109,-12.089184 -3.771346,-12.089184 -4.504928,0 -6.770074,-2.230548 -6.770074,-6.666667 0,-4.436119 2.265146,-6.666666 6.770074,-6.666666 7.645706,0 9.186802,-7.597756 2.65011,-13.065301 -4.995408,-4.178355 -1.906899,-13.774975 3.730902,-11.592665 9.675694,3.745318 15.034595,0.13985 12.419902,-8.356109 C 33.575153,18.181043 42.662064,13.683315 47.910816,21.054507 52.03616,26.848018 60,24.363616 60,17.283161 c 0,-4.504928 2.230547,-6.770074 6.666666,-6.770074 4.436119,0 6.666667,2.265146 6.666667,6.770074 0,7.645706 7.597754,9.186802 13.065299,2.65011 4.178355,-4.995408 13.774978,-1.906899 11.592665,3.730902 -3.745318,9.675694 -0.13985,15.034595 8.356103,12.419902 8.65131,-2.662502 13.14903,6.424409 5.77784,11.673161 -5.79351,4.125344 -3.30911,12.089183 3.77135,12.089183 4.50493,0 6.77007,2.230547 6.77007,6.666666 0,4.406344 -2.26032,6.666667 -6.66666,6.666667 -7.57296,0 -8.80779,6.330634 -2.50356,12.834954 4.58989,4.73556 1.49042,13.940864 -3.98086,11.82301 -9.675697,-3.74532 -15.034598,-0.13985 -12.419904,8.356104 2.662501,8.65131 -6.42441,13.14903 -11.673161,5.77784 -4.125344,-5.79351 -12.089182,-3.30911 -12.089182,3.77135 0,6.10265 -7.497238,9.40617 -11.733333,5.17007 z M 82.039214,96.165446 c 5.107919,-2.60691 10.967455,-7.8456 9.841498,-8.79875 -5.318995,-4.50266 -13.735718,-7.71063 -16.693948,-6.36277 -4.231257,1.92789 -12.783325,1.93956 -16.989313,0.0232 -2.755799,-1.25562 -4.315465,-0.89392 -10.061383,2.33333 -8.080079,4.53827 -8.113729,4.68366 -2.138776,9.24098 10.123848,7.721834 25.01078,9.193934 36.041922,3.56402 z M 43.999999,73.322984 c 5.30054,-3.221984 6.092192,-4.328103 6.790824,-9.488331 0.614931,-4.541996 1.875295,-6.778625 5.666667,-10.056006 6.790178,-5.869645 7.688102,-21.219291 1.131284,-19.33882 -16.563824,4.750442 -26.839102,21.216445 -23.695723,37.972095 1.057121,5.634934 2.170513,5.735304 10.106948,0.911062 z m 55.44028,-0.911062 c 3.143381,-16.75565 -7.131899,-33.221653 -23.69572,-37.972095 -6.556819,-1.880471 -5.658894,13.469175 1.131282,19.33882 3.791371,3.277381 5.051735,5.51401 5.666666,10.056006 0.698632,5.160228 1.490285,6.266347 6.790824,9.488331 7.936435,4.824242 9.049828,4.723872 10.106948,-0.911062 z m -28.106946,-3.23217 c 1.481081,-4.666474 -0.463476,-8 -4.666667,-8 -4.20319,0 -6.147747,3.333526 -4.666666,8 0.586935,1.849271 2.017378,2.666666 4.666666,2.666666 2.649288,0 4.079731,-0.817395 4.666667,-2.666666 z"
       id="path1"
       inkscape:export-filename="icons8-gear-100.svg"
       inkscape:export-xdpi="96"
       inkscape:export-ydpi="96" />
  </g>
</svg>
