<?xml version="1.0" encoding="UTF-8" standalone="no"?>
<!-- Generator: Adobe Illustrator 18.1.1, SVG Export Plug-In . SVG Version: 6.00 Build 0)  -->

<svg
   viewBox="0 0 50 50"
   width="500px"
   height="500px"
   version="1.1"
   id="svg1"
   sodipodi:docname="icons8-search.svg"
   xml:space="preserve"
   inkscape:version="1.4 (e7c3feb100, 2024-10-09)"
   xmlns:inkscape="http://www.inkscape.org/namespaces/inkscape"
   xmlns:sodipodi="http://sodipodi.sourceforge.net/DTD/sodipodi-0.dtd"
   xmlns="http://www.w3.org/2000/svg"
   xmlns:svg="http://www.w3.org/2000/svg"><defs
     id="defs1" /><sodipodi:namedview
     id="namedview1"
     pagecolor="#505050"
     bordercolor="#ffffff"
     borderopacity="1"
     inkscape:showpageshadow="0"
     inkscape:pageopacity="0"
     inkscape:pagecheckerboard="1"
     inkscape:deskcolor="#505050"
     inkscape:zoom="0.8890209"
     inkscape:cx="199.65785"
     inkscape:cy="251.40016"
     inkscape:window-width="1366"
     inkscape:window-height="768"
     inkscape:window-x="0"
     inkscape:window-y="0"
     inkscape:window-maximized="0"
     inkscape:current-layer="svg1" /><path
     d="M21,3C11.6,3,4,10.6,4,20s7.6,17,17,17s17-7.6,17-17S30.4,3,21,3z M21,33c-7.2,0-13-5.8-13-13c0-7.2,5.8-13,13-13c7.2,0,13,5.8,13,13C34,27.2,28.2,33,21,33z"
     id="path1" /><line
     fill="none"
     stroke="#000000"
     stroke-width="6"
     stroke-miterlimit="10"
     x1="31.2"
     y1="31.2"
     x2="44.5"
     y2="44.5"
     id="line1" /><path
     style="fill:#cccccc;fill-opacity:1;stroke-width:903.087;stroke-linejoin:round"
     d="m 362.35275,404.17094 -61.27865,-61.28369 -3.33252,2.10372 c -5.6323,3.55551 -20.04985,10.54777 -28.39095,13.7691 -9.68656,3.74096 -22.93628,7.15288 -34.91198,8.99018 -11.70994,1.79651 -37.07577,1.81076 -48.69514,0.0273 -73.95799,-11.35151 -130.934422,-67.4622 -143.134309,-140.95937 -2.28875,-13.78838 -2.28875,-39.84798 0,-53.63636 12.1885,-73.428573 69.179239,-129.613964 142.952149,-140.932066 11.80508,-1.811113 37.07222,-1.811113 48.8773,0 37.2542,5.71547 70.11995,22.441327 96.41511,49.067051 56.07529,56.780225 64.54529,146.451435 20.09226,212.715045 l -6.05903,9.03186 60.28127,60.28638 60.28128,60.28639 -20.90908,20.90907 -20.90907,20.90908 z M 236.81818,327.7469 c 51.66424,-11.47375 89.99845,-50.03632 101.06449,-101.66653 2.8568,-13.32877 2.8568,-38.83197 0,-52.16074 C 326.73235,121.89624 288.01098,83.235324 235.90909,72.105255 229.90647,70.822969 224.1238,70.454545 210,70.454545 c -19.90534,0 -26.61455,0.961926 -41.65085,5.971644 -32.41065,10.798415 -59.55737,34.339241 -74.979245,65.019761 -4.8102,9.5695 -8.82966,21.1692 -11.252581,32.47368 -2.856793,13.32877 -2.856793,38.83197 0,52.16074 5.801038,27.06556 18.777346,50.35369 38.280666,68.70102 19.22691,18.0873 41.65846,29.2419 68.23837,33.93307 9.46125,1.66985 38.97476,1.07718 48.18182,-0.96756 z"
     id="path2"
     transform="scale(0.1)" /><path
     style="fill:#cccccc;fill-opacity:1;stroke-width:68.452;stroke-linejoin:round"
     d=""
     id="path3"
     transform="scale(0.1)" /></svg>
